<svg width="360" height="177" viewBox="0 0 360 177" fill="none" xmlns="http://www.w3.org/2000/svg">
<g clip-path="url(#clip0_3116_2463)">
<path d="M152.973 16.1199C150.848 15.9998 148.727 16.4094 146.8 17.3117C144.872 18.214 143.199 19.581 141.931 21.2897L140.734 16.6355H132.975V60.3275H142.37L142.552 28.7227C149.103 21.5692 161.679 22.481 161.076 34.4706V60.3303H170.032V34.4787C170.119 27.1515 174.428 24.1337 179.427 24.1337C184.342 24.1337 188.735 27.0646 188.735 34.7365V60.3384H197.962V34.9102C197.962 20.945 189.601 16.0331 179.43 16.0331C176.672 15.8971 173.928 16.5056 171.487 17.7947C169.045 19.0839 166.995 21.0063 165.552 23.3603C164.374 21.0712 162.56 19.1706 160.329 17.8863C158.098 16.602 155.544 15.9887 152.973 16.1199ZM249.473 60.3384V16.6355H240.078V48.5307C232.924 56.7182 219.046 52.33 219.046 41.2903V16.6355H209.651V41.2876C209.545 43.9156 209.986 46.5368 210.947 48.9853C211.907 51.4339 213.365 53.6564 215.229 55.512C217.093 57.3677 219.321 58.8161 221.774 59.7656C224.227 60.715 226.85 61.1448 229.478 61.0277C231.626 61.0704 233.753 60.5907 235.675 59.6296C237.597 58.6686 239.257 57.255 240.512 55.5106L241.719 60.3384H249.473ZM276.394 34.0472C273.636 33.4447 269.585 32.9264 269.498 29.1352C269.411 25.1704 273.549 23.9628 276.394 23.9628C279.455 24.0408 282.389 25.2013 284.676 27.2383L289.832 21.4634C288.09 19.6044 285.978 18.1303 283.633 17.1357C281.287 16.1412 278.759 15.6482 276.212 15.6884C268.108 15.6884 260.352 20.4294 260.352 29.0484C260.439 37.3227 267.077 40.8588 274.317 42.0746C277.248 42.5929 281.732 43.8847 281.732 48.1073C281.732 51.8144 277.593 53.0193 274.317 52.8483C272.482 52.6458 270.708 52.0667 269.106 51.1473C267.504 50.2279 266.11 48.9879 265.009 47.5049L259.166 53.1903C260.861 55.7179 263.16 57.7827 265.855 59.1977C268.549 60.6127 271.554 61.3331 274.597 61.2937C281.653 61.2937 290.88 57.8444 290.88 47.8468C290.874 39.3065 283.808 35.4285 276.394 34.0472ZM310.137 10.5159V0H300.568V10.5159H310.137ZM300.655 16.4646V60.3384H310.05V16.4646H300.655ZM359.655 22.842C357.568 20.6147 355.046 18.8393 352.246 17.6257C349.445 16.412 346.425 15.7859 343.373 15.7861C340.361 15.6854 337.361 16.2056 334.559 17.3141C331.758 18.4227 329.214 20.096 327.087 22.2299C324.959 24.3638 323.294 26.9127 322.194 29.7179C321.094 32.5231 320.583 35.5247 320.693 38.5358C320.693 50.4304 328.452 61.2909 343.364 61.2909C346.489 61.2129 349.568 60.5177 352.423 59.2453C355.278 57.9729 357.853 56.1484 360 53.8769L354.656 48.1019C353.201 49.6196 351.445 50.8173 349.501 51.6186C347.557 52.42 345.467 52.8073 343.364 52.7561C334.659 52.7561 330.004 46.205 330.004 38.7068C330.091 29.2248 336.556 24.3237 343.28 24.397C345.329 24.33 347.371 24.6771 349.283 25.4176C351.195 26.1581 352.937 27.2767 354.407 28.7065L359.655 22.842Z" fill="#1AB26B"/>
</g>
<g clip-path="url(#clip1_3116_2463)">
<path d="M69.899 13.5693V30.5115C69.899 50.3222 69.9614 70.1925 69.8365 89.9978C69.7009 91.2534 69.9653 92.5198 70.592 93.6163C71.2187 94.7128 72.1757 95.5834 73.3265 96.1038C83.4788 101.71 93.4384 107.689 103.496 113.545C103.973 113.857 104.492 114.229 105.412 114.853C90.4614 123.51 75.8829 131.92 60.5635 140.765V29.9525C56.2025 32.441 52.5931 34.4384 49.0435 36.4303C37.073 43.2826 25.1838 50.2625 13.1672 56.99C12.0082 57.4923 11.0361 58.3459 10.388 59.4302C9.74 60.5145 9.44866 61.7749 9.55513 63.0336C9.67996 84.3395 9.67996 105.578 9.55513 126.884C9.47524 127.946 9.71733 129.008 10.2498 129.93C10.7823 130.853 11.5805 131.594 12.5403 132.056C31.5368 142.955 48.6907 153.27 67.6926 164.111C68.5758 164.726 69.6261 165.056 70.7022 165.056C71.7784 165.056 72.8287 164.726 73.7118 164.111C81.2779 160.079 107.922 144.876 125.784 134.675C133.407 130.317 133.125 128.8 133.136 121.649C133.166 96.614 133.027 48.0507 133.027 48.0507L142.612 56.8814C142.612 56.8814 142.612 112.514 142.664 132.737C142.75 133.689 142.539 134.643 142.06 135.47C141.581 136.296 140.857 136.953 139.988 137.351C117.878 150.053 95.7876 162.821 73.7173 175.656C72.9998 176.149 72.1474 176.407 71.2772 176.396C70.4069 176.385 69.5614 176.104 68.8569 175.593C47.2424 163.072 25.5855 150.594 3.88602 138.159C2.64815 137.616 1.61064 136.7 0.917975 135.538C0.225308 134.377 -0.0880332 133.029 0.021587 131.682C0.21698 106.951 0.146421 82.2852 0.0840041 57.5544C-0.0691817 56.3601 0.154458 55.1477 0.723693 54.0866C1.29293 53.0254 2.17934 52.1686 3.25914 51.6357C22.8934 40.6204 42.316 29.3337 61.8743 18.1828C64.3601 16.7445 66.8487 15.374 69.899 13.5693Z" fill="#1AB26B"/>
</g>
<path d="M172.108 100.604C172.108 87.1569 163.315 78.7957 152.713 78.622C148.897 78.4917 145.162 79.7446 142.197 82.1499V62.418H132.975V122.756L137.765 122.279L140.821 118.102C142.093 119.859 143.785 121.269 145.742 122.202C147.7 123.136 149.86 123.563 152.026 123.446C163.834 123.619 172.108 114.308 172.108 100.604ZM151.334 115.171C149.463 115.352 147.581 114.962 145.934 114.055C144.288 113.148 142.954 111.764 142.107 110.086V89.3116C144.654 87.6778 147.616 86.8102 150.642 86.8122C159.177 86.9859 162.968 93.537 162.968 101.467C162.973 108.362 159.003 115.171 151.334 115.171ZM190.277 100.954C190.153 99.1239 190.411 97.2882 191.034 95.5631C191.657 93.838 192.631 92.2611 193.895 90.9322C195.159 89.6033 196.686 88.5514 198.378 87.8432C200.069 87.1349 201.89 86.7857 203.724 86.8176C205.557 86.7737 207.379 87.1155 209.072 87.8209C210.765 88.5263 212.291 89.5794 213.551 90.9122C214.81 92.2449 215.776 93.8275 216.385 95.5573C216.994 97.2872 217.233 99.1257 217.086 100.954C217.235 102.79 216.999 104.638 216.393 106.378C215.787 108.118 214.825 109.713 213.567 111.06C212.31 112.407 210.785 113.476 209.09 114.2C207.396 114.924 205.569 115.286 203.726 115.264C201.883 115.275 200.057 114.906 198.363 114.179C196.669 113.453 195.143 112.385 193.881 111.042C192.619 109.699 191.647 108.109 191.027 106.374C190.407 104.638 190.151 102.793 190.277 100.954ZM226.482 100.954C226.482 94.9079 224.08 89.1097 219.805 84.8347C215.53 80.5596 209.732 78.1579 203.686 78.1579C197.64 78.1579 191.842 80.5596 187.567 84.8347C183.292 89.1097 180.89 94.9079 180.89 100.954C180.89 107 183.292 112.798 187.567 117.073C191.842 121.348 197.64 123.75 203.686 123.75C209.732 123.75 215.53 121.348 219.805 117.073C224.08 112.798 226.482 107 226.482 100.954ZM251.785 95.5262L241.44 78.9721H230.492L245.147 100.867L230.221 122.762H240.306L251.684 106.208L262.719 122.762H272.977L258.162 100.862L272.817 78.9667H262.645L251.785 95.5262Z" fill="#1AB26B"/>
<defs>
<clipPath id="clip0_3116_2463">
<rect width="227.025" height="61.2882" fill="white" transform="translate(132.975)"/>
</clipPath>
<clipPath id="clip1_3116_2463">
<rect width="142.691" height="162.827" fill="white" transform="translate(0 13.5693)"/>
</clipPath>
</defs>
</svg>
